<svg data-v-0dd9719b="" version="1.0" xmlns="http://www.w3.org/2000/svg" xmlns:xlink="http://www.w3.org/1999/xlink" width="100%" height="100%" viewBox="0 0 340.000000 250.000000" preserveAspectRatio="xMidYMid meet" color-interpolation-filters="sRGB" style="margin: auto;">   <g data-v-0dd9719b="" fill="#333" class="icon-text-wrapper icon-svg-group iconsvg" transform="translate(64.4000015258789,2.1478729248046875)"><g class="iconsvg-imagesvg" transform="translate(0,0)"><g><rect fill="#333" fill-opacity="0" stroke-width="2" x="0" y="0" width="211.20000000000013" height="245.70424747257366" class="image-rect"></rect> <svg x="0" y="0" width="211.20000000000013" height="245.70424747257366" filtersec="colorsb5146756750" class="image-svg-svg primary" style="overflow: visible;"><svg xmlns="http://www.w3.org/2000/svg" viewBox="0 0 86 100.05000305175781"><g style="isolation:isolate"><path d="M28.11 91.89l12.46-7.2 1.59-.92 1.65-1 12.41-7.16 1.64-1 12.42-7.17 1.64-.94V16.23l14 8.12v50.36l-1.64 1-12.36 7.11-1.64 1-12.42 7.12-1.64 1-12.41 7.11-1.65 1-1.59-.92zm-15.65-9l1.59.92 12.47-7.19 1.59-.92 12.46-7.2 1.59-.92 1.65-.94 12.41-7.17 1.64-1V8.11L43.81 0v50.37l-1.65.94-1.59.92-12.46 7.2-1.59.92-12.47 7.19-1.59.92L0 75.66z" fill="#4978b3" style="mix-blend-mode:multiply"></path><path d="M57.86 8.11l-12.46 7.2-1.59.92-1.64.95-12.42 7.16-1.64.95-12.41 7.17-1.64.94v50.37L0 75.65V25.29l1.64-.95 12.42-7.16 1.64-.95 12.41-7.17 1.64-1L42.17 1l1.64-1 1.59.92zm15.65 9l-1.59-.92-12.46 7.23-1.6.92-12.46 7.2-1.59.92-1.64.94-12.42 7.17-1.64 1v50.32L42.17 100V49.63l1.64-.94 1.59-.92 12.46-7.2 1.6-.92 12.46-7.19 1.59-.92L86 24.34z" fill="#80c6e8" style="mix-blend-mode:multiply"></path></g></svg></svg> <!----></g></g> <g transform="translate(103.19999694824219,122.85212707519531)"><g data-gra="path-name" fill-rule="" class="tp-name iconsvg-namesvg"><g transform="scale(0.9300000000000004)"><g><path d="" transform="translate(0, 0)"></path></g> <!----> <!----> <!----> <!----> <!----> <!----> <!----></g></g> <!----></g></g><defs v-gra="od"></defs></svg>